PathFileType	4	(X/Y/Z)	/Users/itak/Documents/Research/Walk-IL/dataset/trc/00339_00011.trc
DataRate	CameraRate	NumFrames	NumMarkers	Units	OrigDataRate	OrigDataStartFrame	OrigNumFrames
100.000000	100.000000	4	53	mm	100.000000	173	695
Frame#	Time	RPSI			LPSI			L3			STRN			T10			C7			CLAV			RBAK			LBAK			LSHO			LUPA			LAEL			LAOL			LWTS			LWPS			LFRA			LIFD			LHPS			LHTS			RSHO			RUPA			RAEL			RAOL			RWTS			RWPS			RFRA			RIFD			RHTS			RHPS			RBHD			LFHD			RFHD			LBHD			LHIP			RHIP			RASI			LASI			LKNE			LTHI			LANK			LTIP			LTOE			LMT1			LMT5			LHEE			RKNE			RTHI			RANK			RTIP			RTOE			RMT5			RHEE			RMT1			
		X1	Y1	Z1	X2	Y2	Z2	X3	Y3	Z3	X4	Y4	Z4	X5	Y5	Z5	X6	Y6	Z6	X7	Y7	Z7	X8	Y8	Z8	X9	Y9	Z9	X10	Y10	Z10	X11	Y11	Z11	X12	Y12	Z12	X13	Y13	Z13	X14	Y14	Z14	X15	Y15	Z15	X16	Y16	Z16	X17	Y17	Z17	X18	Y18	Z18	X19	Y19	Z19	X20	Y20	Z20	X21	Y21	Z21	X22	Y22	Z22	X23	Y23	Z23	X24	Y24	Z24	X25	Y25	Z25	X26	Y26	Z26	X27	Y27	Z27	X28	Y28	Z28	X29	Y29	Z29	X30	Y30	Z30	X31	Y31	Z31	X32	Y32	Z32	X33	Y33	Z33	X34	Y34	Z34	X35	Y35	Z35	X36	Y36	Z36	X37	Y37	Z37	X38	Y38	Z38	X39	Y39	Z39	X40	Y40	Z40	X41	Y41	Z41	X42	Y42	Z42	X43	Y43	Z43	X44	Y44	Z44	X45	Y45	Z45	X46	Y46	Z46	X47	Y47	Z47	X48	Y48	Z48	X49	Y49	Z49	X50	Y50	Z50	X51	Y51	Z51	X52	Y52	Z52	X53	Y53	Z53	

174	1.73	387.613525390625	957.616455078125	1014.245788574219	327.8960571289062	959.7546997070312	897.02685546875	359.7622985839844	1016.241943359375	959.1008911132812	551.4800415039062	1200.991333007812	836.5267333984375	343.7531127929688	1136.918579101562	952.73974609375	366.0997009277344	1385.653930664062	912.7207641601562	508.0399169921875	1326.282592773438	847.857177734375	356.9367065429688	1249.333740234375	1000.9912109375	311.3247985839844	1344.3427734375	829.4107666015625	360.8602600097656	1357.23095703125	739.718017578125	313.1823120117188	1235.995971679688	694.1124267578125	316.1984252929688	1031.420043945312	686.48095703125	289.5270080566406	1023.322265625	766.743896484375	416.7766723632812	786.8986206054688	689.0872192382812	354.6867370605469	775.3017578125	660.9284057617188	323.2745056152344	926.1480712890625	678.0162963867188	416.7742614746094	626.5619506835938	710.1109619140625	352.5951538085938	705.0452270507812	674.6213989257812	416.6180419921875	706.0111083984375	677.4869384765625	493.6329345703125	1376.0166015625	1031.15087890625	515.056640625	1312.80810546875	1094.228515625	553.4730834960938	1047.118530273438	1129.255126953125	478.4870910644531	1033.754638671875	1073.063598632812	645.9262084960938	827.2421264648438	1033.77685546875	649.2719116210938	810.8338012695312	1108.44921875	584.8582763671875	981.4951171875	1126.079833984375	671.378662109375	655.7048950195312	1029.107421875	685.779296875	728.2696533203125	1030.029052734375	665.8585205078125	726.5645141601562	1097.401123046875	467.7147216796875	1597.184814453125	953.0794677734375	530.7022705078125	1585.631713867188	754.3282470703125	584.2173461914062	1593.035400390625	839.7064208984375	369.0098876953125	1584.663452148438	847.8771362304688	361.8215942382812	902.1492919921875	765.4895629882812	506.4986572265625	904.0374145507812	1078.41552734375	583.0982666015625	931.0791625976562	994.1015014648438	494.7144775390625	924.1279296875	772.1234130859375	501.5236206054688	444.8851928710938	797.215087890625	464.8287658691406	580.1625366210938	768.4203491210938	501.4404296875	43.76497268676758	923.8908081054688	498.4746398925781	226.2782135009766	848.6541137695312	680.0449829101562	41.86684036254883	805.16259765625	667.1311645507812	26.34550285339355	884.3594970703125	573.8872680664062	42.09595489501953	820.9842529296875	530.1580810546875	41.16865158081055	993.07177734375	586.582763671875	458.3099670410156	1065.162353515625	595.6155395507812	701.8550415039062	1057.032470703125	262.3544616699219	226.2235107421875	1209.508422851562	519.8539428710938	362.5919799804688	1096.661376953125	304.9866333007812	53.48566818237305	1155.535888671875	278.207763671875	124.2248764038086	1224.08642578125	234.2632141113281	272.7015991210938	1167.132080078125	262.772216796875	91.90979766845703	1112.529052734375	
175	1.74	394.621826171875	957.76953125	1010.109497070312	333.1158752441406	960.2941284179688	893.7742309570312	365.7358703613281	1016.773498535156	954.9819946289062	555.75439453125	1201.706787109375	830.4137573242188	349.1412353515625	1137.480346679688	948.52294921875	370.776123046875	1386.155639648438	908.109619140625	512.3607788085938	1327.029418945312	842.0747680664062	362.5690002441406	1249.919067382812	996.4111328125	315.2134094238281	1344.953125	825.3225708007812	364.1373291015625	1357.711059570312	735.2821044921875	316.5287170410156	1236.407104492188	689.6641235351562	321.2227783203125	1031.910522460938	680.3358764648438	294.4085388183594	1022.933166503906	760.5029907226562	426.1820068359375	789.7347412109375	680.7386474609375	364.4124755859375	776.961669921875	652.4454956054688	329.8212890625	926.7333374023438	670.9480590820312	430.1851196289062	628.6582641601562	699.5181274414062	364.304931640625	706.5636596679688	664.9443969726562	428.3055419921875	709.3389892578125	667.5098266601562	499.4533081054688	1376.678833007812	1025.476440429688	521.2392578125	1313.432006835938	1088.392822265625	559.4244384765625	1047.807250976562	1123.412109375	484.4855041503906	1034.377319335938	1067.125	651.6113891601562	827.5704345703125	1028.446166992188	654.9228515625	811.3876953125	1103.12255859375	590.7308349609375	982.1610107421875	1120.2958984375	677.1649169921875	656.0829467773438	1024.460693359375	691.4447021484375	728.4912109375	1025.151611328125	671.5679931640625	727.1597290039062	1092.416870117188	472.9554138183594	1597.8037109375	947.3414916992188	533.8751220703125	1586.284790039062	747.898193359375	588.2523193359375	1593.717407226562	832.7212524414062	373.1371765136719	1585.179809570312	843.1790771484375	364.6517639160156	902.5430297851562	761.8046264648438	514.9266967773438	904.56298828125	1071.851684570312	589.7797241210938	932.1754150390625	986.21240234375	498.0425720214844	925.3477783203125	765.1654052734375	501.9738159179688	444.5914611816406	794.8848876953125	466.0335083007812	580.182373046875	765.4102783203125	501.2482299804688	43.63734817504883	923.7301635742188	498.4771423339844	226.2469177246094	847.5526733398438	679.8342895507812	41.92649078369141	805.001953125	666.9347534179688	26.6201114654541	884.26318359375	573.6456909179688	41.93027877807617	820.8380126953125	529.9764404296875	41.38688659667969	992.88427734375	605.1372680664062	459.909912109375	1052.7705078125	607.4637451171875	703.8230590820312	1047.683959960938	283.8057250976562	228.8899383544922	1203.597290039062	539.081787109375	364.2865905761719	1084.852783203125	327.2357177734375	56.00400161743164	1148.531616210938	301.7444763183594	127.0062408447266	1217.550659179688	253.7999877929688	274.604736328125	1161.7880859375	283.7024841308594	94.35855102539062	1106.414916992188	
176	1.75	401.6841735839844	958.0758056640625	1005.958801269531	338.3185424804688	960.736083984375	890.693603515625	371.61474609375	1017.375244140625	950.9688720703125	559.8622436523438	1202.435180664062	824.2244873046875	354.4452819824219	1138.05712890625	944.44091796875	375.4682006835938	1386.646362304688	903.6010131835938	516.54150390625	1327.765991210938	836.295654296875	368.2635803222656	1250.51904296875	991.9400634765625	318.9466247558594	1345.56982421875	821.4329223632812	367.2184448242188	1358.226440429688	730.9793701171875	319.6647644042969	1236.85205078125	685.3709106445312	326.1523132324219	1032.48193359375	674.2633666992188	299.2235717773438	1022.572692871094	754.332275390625	435.5055541992188	792.7847290039062	672.3643188476562	374.0859680175781	778.8773803710938	643.8832397460938	336.2940063476562	927.4671630859375	663.896728515625	443.6180114746094	631.3104248046875	688.4861450195312	375.9281616210938	708.4085693359375	655.0687255859375	439.8796691894531	712.9523315429688	657.4480590820312	505.3020935058594	1377.392211914062	1019.751403808594	527.5376586914062	1314.14013671875	1082.520141601562	565.4197387695312	1048.58984375	1117.578857421875	490.5004577636719	1035.103515625	1061.188354492188	657.3095092773438	827.9367065429688	1023.219543457031	660.4618530273438	811.9407958984375	1097.903076171875	596.5926513671875	982.8958740234375	1114.524291992188	682.7800903320312	656.442138671875	1019.824829101562	697.02099609375	728.7379760742188	1020.386047363281	677.1124267578125	727.7378540039062	1087.496215820312	478.1397399902344	1598.411743164062	941.5960083007812	536.9191284179688	1586.921630859375	741.4620361328125	592.1674194335938	1594.383422851562	825.7145385742188	377.1705017089844	1585.659790039062	838.5238647460938	367.2514953613281	902.7852172851562	758.3008422851562	523.472900390625	905.2968139648438	1065.144287109375	596.37158203125	933.3804321289062	978.11474609375	500.9475708007812	926.3754272460938	758.3579711914062	502.362060546875	444.2886047363281	792.7275390625	467.1123046875	580.138916015625	762.6067504882812	501.0485534667969	43.5167236328125	923.57275390625	498.4302062988281	226.2276916503906	846.5448608398438	679.6382446289062	42.02528381347656	804.8699340820312	666.6983032226562	26.93258285522461	884.1810302734375	573.3978271484375	41.80355072021484	820.711669921875	529.8270874023438	41.59588241577148	992.7428588867188	623.0274658203125	461.8448791503906	1039.87890625	618.87744140625	705.9838256835938	1038.209350585938	305.6437377929688	230.5338134765625	1197.192504882812	557.9561767578125	366.222412109375	1072.607788085938	350.9806213378906	57.66052627563477	1140.145629882812	326.4082336425781	128.9463806152344	1210.216430664062	273.4059448242188	275.3312377929688	1156.062377929688	306.0878295898438	96.02146148681641	1099.40869140625	
177	1.76	408.7866516113281	958.5072021484375	1001.787780761719	343.4916076660156	961.0585327148438	887.7564697265625	377.3873596191406	1018.038330078125	947.0418701171875	563.8013916015625	1203.172119140625	817.9290161132812	359.6852416992188	1138.634643554688	940.457275390625	380.20849609375	1387.130859375	899.1900024414062	520.5818481445312	1328.489990234375	830.4987182617188	374.0240173339844	1251.122802734375	987.5594482421875	322.5469055175781	1346.1787109375	817.7269897460938	370.0978393554688	1358.779296875	726.8031005859375	322.5892639160156	1237.333740234375	681.2308349609375	330.9676513671875	1033.142822265625	668.2787475585938	303.9874877929688	1022.257080078125	748.2545776367188	444.7296142578125	796.0489501953125	663.9498901367188	383.6622924804688	781.044677734375	635.265380859375	342.6719055175781	928.3569946289062	656.8799438476562	457.0937194824219	634.6286010742188	676.9754028320312	387.4060974121094	710.5752563476562	645.0620727539062	451.2821960449219	716.8240966796875	647.3485717773438	511.1803588867188	1378.143798828125	1013.964233398438	533.9580688476562	1314.920776367188	1076.590087890625	571.4745483398438	1049.4501953125	1111.751098632812	496.5292358398438	1035.922729492188	1055.282104492188	663.0421142578125	828.3336791992188	1018.092041015625	665.8937377929688	812.4814453125	1092.800048828125	602.458740234375	983.6832885742188	1108.771606445312	688.2363891601562	656.7964477539062	1015.154541015625	702.5547485351562	729.0308837890625	1015.70703125	682.4862060546875	728.2841796875	1082.62548828125	483.2715759277344	1599.016235351562	935.8377075195312	539.8403930664062	1587.527465820312	735.0171508789062	595.9739379882812	1595.023193359375	818.6810913085938	381.122314453125	1586.12109375	833.9013671875	369.6846923828125	902.8591918945312	754.9609985351562	532.086181640625	906.2340698242188	1058.316162109375	602.8623046875	934.6832885742188	969.8255004882812	503.4811706542969	927.1734008789062	751.6908569335938	502.6868896484375	443.9635009765625	790.7503662109375	468.0761413574219	580.0186767578125	760.0235595703125	500.8431091308594	43.40530776977539	923.4166870117188	498.3361511230469	226.2137908935547	845.6343994140625	679.4638061523438	42.14645385742188	804.760498046875	666.4310913085938	27.26701164245605	884.1151733398438	573.1536865234375	41.69776916503906	820.5972290039062	529.7125244140625	41.80693054199219	992.6508178710938	640.21875	464.1208801269531	1026.530517578125	629.7728271484375	708.3385009765625	1028.662353515625	327.833740234375	231.1447448730469	1190.294921875	576.4583740234375	368.3872375488281	1059.961669921875	375.9331359863281	58.37232208251953	1130.412353515625	352.0092163085938	130.0829925537109	1202.0927734375	293.1619873046875	274.9154663085938	1149.974243164062	329.6921691894531	96.88096618652344	1091.520385742188	
